<svg width="100px" height="100px" viewBox="0 0 400 400" xmlns="http://www.w3.org/2000/svg">>
  <path d="M 128.07972,148.31316 H 93.080088 L 33.296942,46.515946 V 148.31316 H 0 V 0 H 43.418456 L 94.782773,84.963818 V 0 H 128.07972 Z M 299.67248,58.169835 h -29.89156 l -7.37831,30.97743 H 289.078 v 23.905415 h -32.351 l -8.60801,35.26048 h -22.79706 l 8.41882,-35.26048 h -24.9727 l -8.41883,35.26048 H 177.1738 l 8.51341,-35.26048 H 160.14695 V 89.147265 h 31.21588 l 7.2837,-30.97743 H 170.93062 V 34.364029 h 33.39154 L 212.4572,0 h 23.17543 l -8.13505,34.364029 h 24.87811 L 260.60533,0 h 23.17543 l -8.22964,34.364029 h 24.12136 z m -52.59403,-0.199211 h -25.35108 l -7.56749,31.475458 h 25.44568 z"/>
</svg>
